<mxfile host="app.diagrams.net" modified="2023-10-30T19:13:47.353Z" agent="Mozilla/5.0 (X11; Linux x86_64) AppleWebKit/537.36 (KHTML, like Gecko) Chrome/118.0.0.0 Safari/537.36 Edg/118.0.2088.76" etag="VUYJN_YrCKoF2r1fKHaB" version="22.0.8" type="device">
  <diagram name="Page-1" id="c37626ed-c26b-45fb-9056-f9ebc6bb27b6">
    <mxGraphModel dx="213" dy="794" grid="1" gridSize="10" guides="1" tooltips="1" connect="1" arrows="1" fold="1" page="1" pageScale="1" pageWidth="1100" pageHeight="850" background="none" math="0" shadow="0">
      <root>
        <mxCell id="0" />
        <mxCell id="1" parent="0" />
        <mxCell id="5xRTK5Nr3uc_W30Pz02F-1" value="1" style="shape=mxgraph.cisco.routers.router;sketch=0;html=1;pointerEvents=1;dashed=0;fillColor=#036897;strokeColor=#ffffff;strokeWidth=2;verticalLabelPosition=bottom;verticalAlign=top;align=center;outlineConnect=0;" vertex="1" parent="1">
          <mxGeometry x="1533" y="1257" width="78" height="53" as="geometry" />
        </mxCell>
        <mxCell id="5xRTK5Nr3uc_W30Pz02F-2" value="13" style="shape=mxgraph.cisco.routers.tdm_router;sketch=0;html=1;pointerEvents=1;dashed=0;fillColor=#036897;strokeColor=#ffffff;strokeWidth=2;verticalLabelPosition=bottom;verticalAlign=top;align=center;outlineConnect=0;" vertex="1" parent="1">
          <mxGeometry x="1300" y="1030" width="78" height="53" as="geometry" />
        </mxCell>
        <mxCell id="5xRTK5Nr3uc_W30Pz02F-3" value="10" style="shape=mxgraph.cisco.routers.tdm_router;sketch=0;html=1;pointerEvents=1;dashed=0;fillColor=#036897;strokeColor=#ffffff;strokeWidth=2;verticalLabelPosition=bottom;verticalAlign=top;align=center;outlineConnect=0;" vertex="1" parent="1">
          <mxGeometry x="1260" y="1370" width="78" height="53" as="geometry" />
        </mxCell>
        <mxCell id="5xRTK5Nr3uc_W30Pz02F-4" value="3" style="shape=mxgraph.cisco.routers.tdm_router;sketch=0;html=1;pointerEvents=1;dashed=0;fillColor=#036897;strokeColor=#ffffff;strokeWidth=2;verticalLabelPosition=bottom;verticalAlign=top;align=center;outlineConnect=0;" vertex="1" parent="1">
          <mxGeometry x="1840" y="1050" width="78" height="53" as="geometry" />
        </mxCell>
        <mxCell id="5xRTK5Nr3uc_W30Pz02F-5" value="7" style="shape=mxgraph.cisco.routers.tdm_router;sketch=0;html=1;pointerEvents=1;dashed=0;fillColor=#036897;strokeColor=#ffffff;strokeWidth=2;verticalLabelPosition=bottom;verticalAlign=top;align=center;outlineConnect=0;" vertex="1" parent="1">
          <mxGeometry x="1850" y="1440" width="78" height="53" as="geometry" />
        </mxCell>
        <mxCell id="5xRTK5Nr3uc_W30Pz02F-6" value="6" style="shape=mxgraph.cisco.routers.tdm_router;sketch=0;html=1;pointerEvents=1;dashed=0;fillColor=#036897;strokeColor=#ffffff;strokeWidth=2;verticalLabelPosition=bottom;verticalAlign=top;align=center;outlineConnect=0;" vertex="1" parent="1">
          <mxGeometry x="2000" y="1222" width="78" height="53" as="geometry" />
        </mxCell>
        <mxCell id="5xRTK5Nr3uc_W30Pz02F-7" value="12" style="shape=mxgraph.cisco.routers.tdm_router;sketch=0;html=1;pointerEvents=1;dashed=0;fillColor=#036897;strokeColor=#ffffff;strokeWidth=2;verticalLabelPosition=bottom;verticalAlign=top;align=center;outlineConnect=0;" vertex="1" parent="1">
          <mxGeometry x="1170" y="1160" width="78" height="53" as="geometry" />
        </mxCell>
        <mxCell id="5xRTK5Nr3uc_W30Pz02F-8" value="2" style="shape=mxgraph.cisco.routers.tdm_router;sketch=0;html=1;pointerEvents=1;dashed=0;fillColor=#036897;strokeColor=#ffffff;strokeWidth=2;verticalLabelPosition=bottom;verticalAlign=top;align=center;outlineConnect=0;" vertex="1" parent="1">
          <mxGeometry x="1572" y="1050" width="78" height="53" as="geometry" />
        </mxCell>
        <mxCell id="5xRTK5Nr3uc_W30Pz02F-9" value="9" style="shape=mxgraph.cisco.routers.tdm_router;sketch=0;html=1;pointerEvents=1;dashed=0;fillColor=#036897;strokeColor=#ffffff;strokeWidth=2;verticalLabelPosition=bottom;verticalAlign=top;align=center;outlineConnect=0;" vertex="1" parent="1">
          <mxGeometry x="1667" y="1520" width="78" height="53" as="geometry" />
        </mxCell>
        <mxCell id="5xRTK5Nr3uc_W30Pz02F-10" value="" style="endArrow=classic;startArrow=classic;html=1;rounded=0;entryX=0.5;entryY=0;entryDx=0;entryDy=0;entryPerimeter=0;" edge="1" parent="1" source="5xRTK5Nr3uc_W30Pz02F-8" target="5xRTK5Nr3uc_W30Pz02F-1">
          <mxGeometry width="50" height="50" relative="1" as="geometry">
            <mxPoint x="1570" y="1280" as="sourcePoint" />
            <mxPoint x="1620" y="1230" as="targetPoint" />
          </mxGeometry>
        </mxCell>
        <mxCell id="5xRTK5Nr3uc_W30Pz02F-20" value="1&lt;br&gt;90" style="edgeLabel;html=1;align=center;verticalAlign=middle;resizable=0;points=[];" vertex="1" connectable="0" parent="5xRTK5Nr3uc_W30Pz02F-10">
          <mxGeometry x="-0.0913" y="1" relative="1" as="geometry">
            <mxPoint as="offset" />
          </mxGeometry>
        </mxCell>
        <mxCell id="5xRTK5Nr3uc_W30Pz02F-11" value="" style="endArrow=classic;startArrow=classic;html=1;rounded=0;entryX=0.5;entryY=1;entryDx=0;entryDy=0;entryPerimeter=0;exitX=0.5;exitY=0;exitDx=0;exitDy=0;exitPerimeter=0;" edge="1" parent="1" source="5xRTK5Nr3uc_W30Pz02F-9" target="5xRTK5Nr3uc_W30Pz02F-1">
          <mxGeometry width="50" height="50" relative="1" as="geometry">
            <mxPoint x="1570" y="1280" as="sourcePoint" />
            <mxPoint x="1620" y="1230" as="targetPoint" />
          </mxGeometry>
        </mxCell>
        <mxCell id="5xRTK5Nr3uc_W30Pz02F-24" value="5&lt;br&gt;110" style="edgeLabel;html=1;align=center;verticalAlign=middle;resizable=0;points=[];" vertex="1" connectable="0" parent="5xRTK5Nr3uc_W30Pz02F-11">
          <mxGeometry x="-0.0967" y="1" relative="1" as="geometry">
            <mxPoint as="offset" />
          </mxGeometry>
        </mxCell>
        <mxCell id="5xRTK5Nr3uc_W30Pz02F-12" value="" style="endArrow=classic;startArrow=classic;html=1;rounded=0;" edge="1" parent="1" source="5xRTK5Nr3uc_W30Pz02F-3" target="5xRTK5Nr3uc_W30Pz02F-1">
          <mxGeometry width="50" height="50" relative="1" as="geometry">
            <mxPoint x="1570" y="1280" as="sourcePoint" />
            <mxPoint x="1620" y="1230" as="targetPoint" />
          </mxGeometry>
        </mxCell>
        <mxCell id="5xRTK5Nr3uc_W30Pz02F-25" value="6&lt;br&gt;80" style="edgeLabel;html=1;align=center;verticalAlign=middle;resizable=0;points=[];" vertex="1" connectable="0" parent="5xRTK5Nr3uc_W30Pz02F-12">
          <mxGeometry x="0.1581" y="-3" relative="1" as="geometry">
            <mxPoint x="-1" as="offset" />
          </mxGeometry>
        </mxCell>
        <mxCell id="5xRTK5Nr3uc_W30Pz02F-13" value="" style="endArrow=classic;startArrow=classic;html=1;rounded=0;" edge="1" parent="1" source="5xRTK5Nr3uc_W30Pz02F-5" target="5xRTK5Nr3uc_W30Pz02F-1">
          <mxGeometry width="50" height="50" relative="1" as="geometry">
            <mxPoint x="1670" y="1340" as="sourcePoint" />
            <mxPoint x="1720" y="1290" as="targetPoint" />
          </mxGeometry>
        </mxCell>
        <mxCell id="5xRTK5Nr3uc_W30Pz02F-23" value="4&lt;br&gt;95" style="edgeLabel;html=1;align=center;verticalAlign=middle;resizable=0;points=[];" vertex="1" connectable="0" parent="5xRTK5Nr3uc_W30Pz02F-13">
          <mxGeometry x="0.0992" y="4" relative="1" as="geometry">
            <mxPoint as="offset" />
          </mxGeometry>
        </mxCell>
        <mxCell id="5xRTK5Nr3uc_W30Pz02F-16" value="" style="endArrow=classic;startArrow=classic;html=1;rounded=0;" edge="1" parent="1" source="5xRTK5Nr3uc_W30Pz02F-7" target="5xRTK5Nr3uc_W30Pz02F-1">
          <mxGeometry width="50" height="50" relative="1" as="geometry">
            <mxPoint x="1570" y="1280" as="sourcePoint" />
            <mxPoint x="1620" y="1230" as="targetPoint" />
          </mxGeometry>
        </mxCell>
        <mxCell id="5xRTK5Nr3uc_W30Pz02F-26" value="7&lt;br&gt;75" style="edgeLabel;html=1;align=center;verticalAlign=middle;resizable=0;points=[];" vertex="1" connectable="0" parent="5xRTK5Nr3uc_W30Pz02F-16">
          <mxGeometry x="-0.0889" y="2" relative="1" as="geometry">
            <mxPoint as="offset" />
          </mxGeometry>
        </mxCell>
        <mxCell id="5xRTK5Nr3uc_W30Pz02F-17" value="" style="endArrow=classic;startArrow=classic;html=1;rounded=0;" edge="1" parent="1" source="5xRTK5Nr3uc_W30Pz02F-1" target="5xRTK5Nr3uc_W30Pz02F-2">
          <mxGeometry width="50" height="50" relative="1" as="geometry">
            <mxPoint x="1570" y="1280" as="sourcePoint" />
            <mxPoint x="1620" y="1230" as="targetPoint" />
          </mxGeometry>
        </mxCell>
        <mxCell id="5xRTK5Nr3uc_W30Pz02F-27" value="8&lt;br&gt;130" style="edgeLabel;html=1;align=center;verticalAlign=middle;resizable=0;points=[];" vertex="1" connectable="0" parent="5xRTK5Nr3uc_W30Pz02F-17">
          <mxGeometry x="0.1078" y="2" relative="1" as="geometry">
            <mxPoint as="offset" />
          </mxGeometry>
        </mxCell>
        <mxCell id="5xRTK5Nr3uc_W30Pz02F-18" value="" style="endArrow=classic;startArrow=classic;html=1;rounded=0;" edge="1" parent="1" source="5xRTK5Nr3uc_W30Pz02F-1" target="5xRTK5Nr3uc_W30Pz02F-4">
          <mxGeometry width="50" height="50" relative="1" as="geometry">
            <mxPoint x="1570" y="1280" as="sourcePoint" />
            <mxPoint x="1620" y="1230" as="targetPoint" />
          </mxGeometry>
        </mxCell>
        <mxCell id="5xRTK5Nr3uc_W30Pz02F-21" value="2&lt;br&gt;70" style="edgeLabel;html=1;align=center;verticalAlign=middle;resizable=0;points=[];" vertex="1" connectable="0" parent="5xRTK5Nr3uc_W30Pz02F-18">
          <mxGeometry x="-0.0187" y="1" relative="1" as="geometry">
            <mxPoint as="offset" />
          </mxGeometry>
        </mxCell>
        <mxCell id="5xRTK5Nr3uc_W30Pz02F-19" value="" style="endArrow=classic;startArrow=classic;html=1;rounded=0;" edge="1" parent="1" source="5xRTK5Nr3uc_W30Pz02F-1" target="5xRTK5Nr3uc_W30Pz02F-6">
          <mxGeometry width="50" height="50" relative="1" as="geometry">
            <mxPoint x="1800" y="1310" as="sourcePoint" />
            <mxPoint x="1850" y="1260" as="targetPoint" />
          </mxGeometry>
        </mxCell>
        <mxCell id="5xRTK5Nr3uc_W30Pz02F-22" value="3&lt;br&gt;85" style="edgeLabel;html=1;align=center;verticalAlign=middle;resizable=0;points=[];" vertex="1" connectable="0" parent="5xRTK5Nr3uc_W30Pz02F-19">
          <mxGeometry x="0.0553" y="-3" relative="1" as="geometry">
            <mxPoint as="offset" />
          </mxGeometry>
        </mxCell>
        <mxCell id="5xRTK5Nr3uc_W30Pz02F-28" value="" style="endArrow=classic;startArrow=classic;html=1;rounded=0;" edge="1" parent="1" source="5xRTK5Nr3uc_W30Pz02F-4" target="5xRTK5Nr3uc_W30Pz02F-8">
          <mxGeometry width="50" height="50" relative="1" as="geometry">
            <mxPoint x="1570" y="1050" as="sourcePoint" />
            <mxPoint x="1620" y="1000" as="targetPoint" />
          </mxGeometry>
        </mxCell>
        <mxCell id="5xRTK5Nr3uc_W30Pz02F-29" value="9&lt;br&gt;80" style="edgeLabel;html=1;align=center;verticalAlign=middle;resizable=0;points=[];" vertex="1" connectable="0" parent="5xRTK5Nr3uc_W30Pz02F-28">
          <mxGeometry x="0.0426" y="-1" relative="1" as="geometry">
            <mxPoint as="offset" />
          </mxGeometry>
        </mxCell>
        <mxCell id="5xRTK5Nr3uc_W30Pz02F-30" value="" style="endArrow=classic;startArrow=classic;html=1;rounded=0;" edge="1" parent="1" source="5xRTK5Nr3uc_W30Pz02F-6" target="5xRTK5Nr3uc_W30Pz02F-8">
          <mxGeometry width="50" height="50" relative="1" as="geometry">
            <mxPoint x="1570" y="1050" as="sourcePoint" />
            <mxPoint x="1620" y="1000" as="targetPoint" />
          </mxGeometry>
        </mxCell>
        <mxCell id="5xRTK5Nr3uc_W30Pz02F-31" value="10&lt;br&gt;110" style="edgeLabel;html=1;align=center;verticalAlign=middle;resizable=0;points=[];" vertex="1" connectable="0" parent="5xRTK5Nr3uc_W30Pz02F-30">
          <mxGeometry x="-0.1936" y="-1" relative="1" as="geometry">
            <mxPoint as="offset" />
          </mxGeometry>
        </mxCell>
        <mxCell id="5xRTK5Nr3uc_W30Pz02F-32" value="8" style="shape=mxgraph.cisco.routers.tdm_router;sketch=0;html=1;pointerEvents=1;dashed=0;fillColor=#036897;strokeColor=#ffffff;strokeWidth=2;verticalLabelPosition=bottom;verticalAlign=top;align=center;outlineConnect=0;" vertex="1" parent="1">
          <mxGeometry x="1310" y="920" width="78" height="53" as="geometry" />
        </mxCell>
        <mxCell id="5xRTK5Nr3uc_W30Pz02F-33" value="" style="endArrow=classic;startArrow=classic;html=1;rounded=0;" edge="1" parent="1" source="5xRTK5Nr3uc_W30Pz02F-1" target="5xRTK5Nr3uc_W30Pz02F-32">
          <mxGeometry width="50" height="50" relative="1" as="geometry">
            <mxPoint x="1570" y="1170" as="sourcePoint" />
            <mxPoint x="1620" y="1120" as="targetPoint" />
          </mxGeometry>
        </mxCell>
        <mxCell id="5xRTK5Nr3uc_W30Pz02F-34" value="11&lt;br&gt;100" style="edgeLabel;html=1;align=center;verticalAlign=middle;resizable=0;points=[];" vertex="1" connectable="0" parent="5xRTK5Nr3uc_W30Pz02F-33">
          <mxGeometry x="0.1966" y="3" relative="1" as="geometry">
            <mxPoint as="offset" />
          </mxGeometry>
        </mxCell>
        <mxCell id="5xRTK5Nr3uc_W30Pz02F-35" value="" style="endArrow=classic;startArrow=classic;html=1;rounded=0;" edge="1" parent="1" source="5xRTK5Nr3uc_W30Pz02F-3" target="5xRTK5Nr3uc_W30Pz02F-8">
          <mxGeometry width="50" height="50" relative="1" as="geometry">
            <mxPoint x="1570" y="1170" as="sourcePoint" />
            <mxPoint x="1620" y="1120" as="targetPoint" />
          </mxGeometry>
        </mxCell>
        <mxCell id="5xRTK5Nr3uc_W30Pz02F-36" value="12&lt;br&gt;125" style="edgeLabel;html=1;align=center;verticalAlign=middle;resizable=0;points=[];" vertex="1" connectable="0" parent="5xRTK5Nr3uc_W30Pz02F-35">
          <mxGeometry x="0.1074" y="-4" relative="1" as="geometry">
            <mxPoint as="offset" />
          </mxGeometry>
        </mxCell>
        <mxCell id="5xRTK5Nr3uc_W30Pz02F-37" value="4" style="shape=mxgraph.cisco.routers.tdm_router;sketch=0;html=1;pointerEvents=1;dashed=0;fillColor=#036897;strokeColor=#ffffff;strokeWidth=2;verticalLabelPosition=bottom;verticalAlign=top;align=center;outlineConnect=0;" vertex="1" parent="1">
          <mxGeometry x="1611" y="940" width="78" height="53" as="geometry" />
        </mxCell>
        <mxCell id="5xRTK5Nr3uc_W30Pz02F-38" value="13&lt;br&gt;100" style="endArrow=classic;startArrow=classic;html=1;rounded=0;" edge="1" parent="1" source="5xRTK5Nr3uc_W30Pz02F-37" target="5xRTK5Nr3uc_W30Pz02F-4">
          <mxGeometry width="50" height="50" relative="1" as="geometry">
            <mxPoint x="1570" y="1170" as="sourcePoint" />
            <mxPoint x="1620" y="1120" as="targetPoint" />
          </mxGeometry>
        </mxCell>
        <mxCell id="5xRTK5Nr3uc_W30Pz02F-39" value="5" style="shape=mxgraph.cisco.routers.wavelength_router;sketch=0;html=1;pointerEvents=1;dashed=0;fillColor=#036897;strokeColor=#ffffff;strokeWidth=2;verticalLabelPosition=bottom;verticalAlign=top;align=center;outlineConnect=0;" vertex="1" parent="1">
          <mxGeometry x="1710" y="750" width="77" height="50" as="geometry" />
        </mxCell>
        <mxCell id="5xRTK5Nr3uc_W30Pz02F-40" value="" style="endArrow=classic;startArrow=classic;html=1;rounded=0;" edge="1" parent="1" source="5xRTK5Nr3uc_W30Pz02F-4" target="5xRTK5Nr3uc_W30Pz02F-39">
          <mxGeometry width="50" height="50" relative="1" as="geometry">
            <mxPoint x="1570" y="1170" as="sourcePoint" />
            <mxPoint x="1620" y="1120" as="targetPoint" />
          </mxGeometry>
        </mxCell>
        <mxCell id="5xRTK5Nr3uc_W30Pz02F-41" value="14&lt;br&gt;75" style="edgeLabel;html=1;align=center;verticalAlign=middle;resizable=0;points=[];" vertex="1" connectable="0" parent="5xRTK5Nr3uc_W30Pz02F-40">
          <mxGeometry x="0.2139" relative="1" as="geometry">
            <mxPoint as="offset" />
          </mxGeometry>
        </mxCell>
        <mxCell id="5xRTK5Nr3uc_W30Pz02F-43" value="" style="endArrow=classic;startArrow=classic;html=1;rounded=0;" edge="1" parent="1" source="5xRTK5Nr3uc_W30Pz02F-5" target="5xRTK5Nr3uc_W30Pz02F-4">
          <mxGeometry width="50" height="50" relative="1" as="geometry">
            <mxPoint x="1880" y="1140" as="sourcePoint" />
            <mxPoint x="1930" y="1090" as="targetPoint" />
          </mxGeometry>
        </mxCell>
        <mxCell id="5xRTK5Nr3uc_W30Pz02F-44" value="15&lt;br&gt;95" style="edgeLabel;html=1;align=center;verticalAlign=middle;resizable=0;points=[];" vertex="1" connectable="0" parent="5xRTK5Nr3uc_W30Pz02F-43">
          <mxGeometry x="-0.5019" y="-1" relative="1" as="geometry">
            <mxPoint as="offset" />
          </mxGeometry>
        </mxCell>
        <mxCell id="5xRTK5Nr3uc_W30Pz02F-45" value="" style="endArrow=classic;startArrow=classic;html=1;rounded=0;" edge="1" parent="1" source="5xRTK5Nr3uc_W30Pz02F-9" target="5xRTK5Nr3uc_W30Pz02F-4">
          <mxGeometry width="50" height="50" relative="1" as="geometry">
            <mxPoint x="1750" y="1460" as="sourcePoint" />
            <mxPoint x="1800" y="1410" as="targetPoint" />
          </mxGeometry>
        </mxCell>
        <mxCell id="5xRTK5Nr3uc_W30Pz02F-47" value="16&lt;br&gt;140" style="edgeLabel;html=1;align=center;verticalAlign=middle;resizable=0;points=[];" vertex="1" connectable="0" parent="5xRTK5Nr3uc_W30Pz02F-45">
          <mxGeometry x="-0.6481" y="1" relative="1" as="geometry">
            <mxPoint x="-1" as="offset" />
          </mxGeometry>
        </mxCell>
        <mxCell id="5xRTK5Nr3uc_W30Pz02F-48" value="" style="endArrow=classic;startArrow=classic;html=1;rounded=0;" edge="1" parent="1" source="5xRTK5Nr3uc_W30Pz02F-3" target="5xRTK5Nr3uc_W30Pz02F-4">
          <mxGeometry width="50" height="50" relative="1" as="geometry">
            <mxPoint x="1540" y="1150" as="sourcePoint" />
            <mxPoint x="1590" y="1100" as="targetPoint" />
          </mxGeometry>
        </mxCell>
        <mxCell id="5xRTK5Nr3uc_W30Pz02F-49" value="17&lt;br&gt;130" style="edgeLabel;html=1;align=center;verticalAlign=middle;resizable=0;points=[];" vertex="1" connectable="0" parent="5xRTK5Nr3uc_W30Pz02F-48">
          <mxGeometry x="0.5202" y="1" relative="1" as="geometry">
            <mxPoint as="offset" />
          </mxGeometry>
        </mxCell>
        <mxCell id="5xRTK5Nr3uc_W30Pz02F-51" value="15" style="shape=mxgraph.cisco.routers.wavelength_router;sketch=0;html=1;pointerEvents=1;dashed=0;fillColor=#036897;strokeColor=#ffffff;strokeWidth=2;verticalLabelPosition=bottom;verticalAlign=top;align=center;outlineConnect=0;" vertex="1" parent="1">
          <mxGeometry x="1520" y="1493" width="77" height="50" as="geometry" />
        </mxCell>
        <mxCell id="5xRTK5Nr3uc_W30Pz02F-54" value="" style="endArrow=classic;startArrow=classic;html=1;rounded=0;" edge="1" parent="1" source="5xRTK5Nr3uc_W30Pz02F-4" target="5xRTK5Nr3uc_W30Pz02F-51">
          <mxGeometry width="50" height="50" relative="1" as="geometry">
            <mxPoint x="1420" y="1450" as="sourcePoint" />
            <mxPoint x="1470" y="1400" as="targetPoint" />
          </mxGeometry>
        </mxCell>
        <mxCell id="5xRTK5Nr3uc_W30Pz02F-55" value="18&lt;br&gt;105" style="edgeLabel;html=1;align=center;verticalAlign=middle;resizable=0;points=[];" vertex="1" connectable="0" parent="5xRTK5Nr3uc_W30Pz02F-54">
          <mxGeometry x="-0.2062" y="1" relative="1" as="geometry">
            <mxPoint as="offset" />
          </mxGeometry>
        </mxCell>
        <mxCell id="5xRTK5Nr3uc_W30Pz02F-56" value="" style="endArrow=classic;startArrow=classic;html=1;rounded=0;" edge="1" parent="1" source="5xRTK5Nr3uc_W30Pz02F-37" target="5xRTK5Nr3uc_W30Pz02F-6">
          <mxGeometry width="50" height="50" relative="1" as="geometry">
            <mxPoint x="1570" y="1170" as="sourcePoint" />
            <mxPoint x="1620" y="1120" as="targetPoint" />
          </mxGeometry>
        </mxCell>
        <mxCell id="5xRTK5Nr3uc_W30Pz02F-57" value="19&lt;br&gt;120" style="edgeLabel;html=1;align=center;verticalAlign=middle;resizable=0;points=[];" vertex="1" connectable="0" parent="5xRTK5Nr3uc_W30Pz02F-56">
          <mxGeometry x="0.5866" y="-1" relative="1" as="geometry">
            <mxPoint as="offset" />
          </mxGeometry>
        </mxCell>
        <mxCell id="5xRTK5Nr3uc_W30Pz02F-59" value="" style="endArrow=classic;startArrow=classic;html=1;rounded=0;" edge="1" parent="1" source="5xRTK5Nr3uc_W30Pz02F-32" target="5xRTK5Nr3uc_W30Pz02F-37">
          <mxGeometry width="50" height="50" relative="1" as="geometry">
            <mxPoint x="1520" y="1000" as="sourcePoint" />
            <mxPoint x="1570" y="950" as="targetPoint" />
          </mxGeometry>
        </mxCell>
        <mxCell id="5xRTK5Nr3uc_W30Pz02F-60" value="20&lt;br&gt;105" style="edgeLabel;html=1;align=center;verticalAlign=middle;resizable=0;points=[];" vertex="1" connectable="0" parent="5xRTK5Nr3uc_W30Pz02F-59">
          <mxGeometry x="-0.2147" y="-2" relative="1" as="geometry">
            <mxPoint y="-1" as="offset" />
          </mxGeometry>
        </mxCell>
        <mxCell id="5xRTK5Nr3uc_W30Pz02F-61" value="" style="endArrow=classic;startArrow=classic;html=1;rounded=0;" edge="1" parent="1" source="5xRTK5Nr3uc_W30Pz02F-37" target="5xRTK5Nr3uc_W30Pz02F-62">
          <mxGeometry width="50" height="50" relative="1" as="geometry">
            <mxPoint x="1570" y="1170" as="sourcePoint" />
            <mxPoint x="1540" y="1020" as="targetPoint" />
          </mxGeometry>
        </mxCell>
        <mxCell id="5xRTK5Nr3uc_W30Pz02F-63" value="21&lt;br&gt;50" style="edgeLabel;html=1;align=center;verticalAlign=middle;resizable=0;points=[];" vertex="1" connectable="0" parent="5xRTK5Nr3uc_W30Pz02F-61">
          <mxGeometry x="0.1067" y="-1" relative="1" as="geometry">
            <mxPoint as="offset" />
          </mxGeometry>
        </mxCell>
        <mxCell id="5xRTK5Nr3uc_W30Pz02F-62" value="11" style="shape=mxgraph.cisco.routers.wavelength_router;sketch=0;html=1;pointerEvents=1;dashed=0;fillColor=#036897;strokeColor=#ffffff;strokeWidth=2;verticalLabelPosition=bottom;verticalAlign=top;align=center;outlineConnect=0;" vertex="1" parent="1">
          <mxGeometry x="1160" y="850" width="77" height="50" as="geometry" />
        </mxCell>
        <mxCell id="5xRTK5Nr3uc_W30Pz02F-64" value="" style="endArrow=classic;startArrow=classic;html=1;rounded=0;" edge="1" parent="1" source="5xRTK5Nr3uc_W30Pz02F-7" target="5xRTK5Nr3uc_W30Pz02F-37">
          <mxGeometry width="50" height="50" relative="1" as="geometry">
            <mxPoint x="1570" y="1170" as="sourcePoint" />
            <mxPoint x="1620" y="1120" as="targetPoint" />
          </mxGeometry>
        </mxCell>
        <mxCell id="5xRTK5Nr3uc_W30Pz02F-65" value="22&lt;br&gt;85" style="edgeLabel;html=1;align=center;verticalAlign=middle;resizable=0;points=[];" vertex="1" connectable="0" parent="5xRTK5Nr3uc_W30Pz02F-64">
          <mxGeometry x="0.8123" y="1" relative="1" as="geometry">
            <mxPoint x="1" as="offset" />
          </mxGeometry>
        </mxCell>
        <mxCell id="5xRTK5Nr3uc_W30Pz02F-67" value="" style="endArrow=classic;startArrow=classic;html=1;rounded=0;" edge="1" parent="1" source="5xRTK5Nr3uc_W30Pz02F-6" target="5xRTK5Nr3uc_W30Pz02F-39">
          <mxGeometry width="50" height="50" relative="1" as="geometry">
            <mxPoint x="1970" y="900" as="sourcePoint" />
            <mxPoint x="2020" y="850" as="targetPoint" />
          </mxGeometry>
        </mxCell>
        <mxCell id="5xRTK5Nr3uc_W30Pz02F-68" value="23&lt;br&gt;70" style="edgeLabel;html=1;align=center;verticalAlign=middle;resizable=0;points=[];" vertex="1" connectable="0" parent="5xRTK5Nr3uc_W30Pz02F-67">
          <mxGeometry x="-0.7287" y="-2" relative="1" as="geometry">
            <mxPoint as="offset" />
          </mxGeometry>
        </mxCell>
        <mxCell id="5xRTK5Nr3uc_W30Pz02F-69" value="" style="endArrow=classic;startArrow=classic;html=1;rounded=0;" edge="1" parent="1" source="5xRTK5Nr3uc_W30Pz02F-39" target="5xRTK5Nr3uc_W30Pz02F-5">
          <mxGeometry width="50" height="50" relative="1" as="geometry">
            <mxPoint x="1570" y="1170" as="sourcePoint" />
            <mxPoint x="1620" y="1120" as="targetPoint" />
          </mxGeometry>
        </mxCell>
        <mxCell id="5xRTK5Nr3uc_W30Pz02F-70" value="24&lt;br&gt;55" style="edgeLabel;html=1;align=center;verticalAlign=middle;resizable=0;points=[];" vertex="1" connectable="0" parent="5xRTK5Nr3uc_W30Pz02F-69">
          <mxGeometry x="-0.8797" y="-1" relative="1" as="geometry">
            <mxPoint x="19" y="93" as="offset" />
          </mxGeometry>
        </mxCell>
        <mxCell id="5xRTK5Nr3uc_W30Pz02F-71" value="" style="endArrow=classic;startArrow=classic;html=1;rounded=0;" edge="1" parent="1" source="5xRTK5Nr3uc_W30Pz02F-39" target="5xRTK5Nr3uc_W30Pz02F-62">
          <mxGeometry width="50" height="50" relative="1" as="geometry">
            <mxPoint x="1570" y="1170" as="sourcePoint" />
            <mxPoint x="1620" y="1120" as="targetPoint" />
          </mxGeometry>
        </mxCell>
        <mxCell id="5xRTK5Nr3uc_W30Pz02F-72" value="25&lt;br&gt;115" style="edgeLabel;html=1;align=center;verticalAlign=middle;resizable=0;points=[];" vertex="1" connectable="0" parent="5xRTK5Nr3uc_W30Pz02F-71">
          <mxGeometry x="-0.2473" y="-1" relative="1" as="geometry">
            <mxPoint as="offset" />
          </mxGeometry>
        </mxCell>
        <mxCell id="5xRTK5Nr3uc_W30Pz02F-73" value="" style="endArrow=classic;startArrow=classic;html=1;rounded=0;" edge="1" parent="1" source="5xRTK5Nr3uc_W30Pz02F-2" target="5xRTK5Nr3uc_W30Pz02F-39">
          <mxGeometry width="50" height="50" relative="1" as="geometry">
            <mxPoint x="1570" y="1170" as="sourcePoint" />
            <mxPoint x="1620" y="1120" as="targetPoint" />
          </mxGeometry>
        </mxCell>
        <mxCell id="5xRTK5Nr3uc_W30Pz02F-74" value="26&lt;br&gt;85" style="edgeLabel;html=1;align=center;verticalAlign=middle;resizable=0;points=[];" vertex="1" connectable="0" parent="5xRTK5Nr3uc_W30Pz02F-73">
          <mxGeometry x="0.7084" y="-3" relative="1" as="geometry">
            <mxPoint as="offset" />
          </mxGeometry>
        </mxCell>
        <mxCell id="5xRTK5Nr3uc_W30Pz02F-76" value="14" style="shape=mxgraph.cisco.routers.wavelength_router;sketch=0;html=1;pointerEvents=1;dashed=0;fillColor=#036897;strokeColor=#ffffff;strokeWidth=2;verticalLabelPosition=bottom;verticalAlign=top;align=center;outlineConnect=0;" vertex="1" parent="1">
          <mxGeometry x="1203" y="1310" width="77" height="50" as="geometry" />
        </mxCell>
        <mxCell id="5xRTK5Nr3uc_W30Pz02F-77" value="" style="endArrow=classic;startArrow=classic;html=1;rounded=0;" edge="1" parent="1" source="5xRTK5Nr3uc_W30Pz02F-76" target="5xRTK5Nr3uc_W30Pz02F-39">
          <mxGeometry width="50" height="50" relative="1" as="geometry">
            <mxPoint x="1570" y="1170" as="sourcePoint" />
            <mxPoint x="1620" y="1120" as="targetPoint" />
          </mxGeometry>
        </mxCell>
        <mxCell id="5xRTK5Nr3uc_W30Pz02F-78" value="27&lt;br&gt;130" style="edgeLabel;html=1;align=center;verticalAlign=middle;resizable=0;points=[];" vertex="1" connectable="0" parent="5xRTK5Nr3uc_W30Pz02F-77">
          <mxGeometry x="0.6313" y="-2" relative="1" as="geometry">
            <mxPoint as="offset" />
          </mxGeometry>
        </mxCell>
        <mxCell id="5xRTK5Nr3uc_W30Pz02F-80" value="" style="endArrow=classic;startArrow=classic;html=1;rounded=0;" edge="1" parent="1" source="5xRTK5Nr3uc_W30Pz02F-51" target="5xRTK5Nr3uc_W30Pz02F-39">
          <mxGeometry width="50" height="50" relative="1" as="geometry">
            <mxPoint x="1940" y="850" as="sourcePoint" />
            <mxPoint x="1990" y="800" as="targetPoint" />
          </mxGeometry>
        </mxCell>
        <mxCell id="5xRTK5Nr3uc_W30Pz02F-81" value="28&lt;br&gt;60" style="edgeLabel;html=1;align=center;verticalAlign=middle;resizable=0;points=[];" vertex="1" connectable="0" parent="5xRTK5Nr3uc_W30Pz02F-80">
          <mxGeometry x="0.7495" relative="1" as="geometry">
            <mxPoint x="1" as="offset" />
          </mxGeometry>
        </mxCell>
        <mxCell id="5xRTK5Nr3uc_W30Pz02F-83" value="" style="endArrow=classic;startArrow=classic;html=1;rounded=0;" edge="1" parent="1" source="5xRTK5Nr3uc_W30Pz02F-9" target="5xRTK5Nr3uc_W30Pz02F-6">
          <mxGeometry width="50" height="50" relative="1" as="geometry">
            <mxPoint x="2020" y="1420" as="sourcePoint" />
            <mxPoint x="2070" y="1370" as="targetPoint" />
          </mxGeometry>
        </mxCell>
        <mxCell id="5xRTK5Nr3uc_W30Pz02F-84" value="29&lt;br&gt;95" style="edgeLabel;html=1;align=center;verticalAlign=middle;resizable=0;points=[];" vertex="1" connectable="0" parent="5xRTK5Nr3uc_W30Pz02F-83">
          <mxGeometry x="0.6857" y="-3" relative="1" as="geometry">
            <mxPoint as="offset" />
          </mxGeometry>
        </mxCell>
        <mxCell id="5xRTK5Nr3uc_W30Pz02F-86" value="" style="endArrow=classic;startArrow=classic;html=1;rounded=0;" edge="1" parent="1" source="5xRTK5Nr3uc_W30Pz02F-6" target="5xRTK5Nr3uc_W30Pz02F-3">
          <mxGeometry width="50" height="50" relative="1" as="geometry">
            <mxPoint x="2050" y="1200" as="sourcePoint" />
            <mxPoint x="2100" y="1150" as="targetPoint" />
          </mxGeometry>
        </mxCell>
        <mxCell id="5xRTK5Nr3uc_W30Pz02F-87" value="30&lt;br&gt;100" style="edgeLabel;html=1;align=center;verticalAlign=middle;resizable=0;points=[];" vertex="1" connectable="0" parent="5xRTK5Nr3uc_W30Pz02F-86">
          <mxGeometry x="0.0773" relative="1" as="geometry">
            <mxPoint as="offset" />
          </mxGeometry>
        </mxCell>
        <mxCell id="5xRTK5Nr3uc_W30Pz02F-88" value="" style="endArrow=classic;startArrow=classic;html=1;rounded=0;" edge="1" parent="1" source="5xRTK5Nr3uc_W30Pz02F-7" target="5xRTK5Nr3uc_W30Pz02F-6">
          <mxGeometry width="50" height="50" relative="1" as="geometry">
            <mxPoint x="1280" y="1220" as="sourcePoint" />
            <mxPoint x="1330" y="1170" as="targetPoint" />
          </mxGeometry>
        </mxCell>
        <mxCell id="5xRTK5Nr3uc_W30Pz02F-90" value="31&lt;br&gt;115" style="edgeLabel;html=1;align=center;verticalAlign=middle;resizable=0;points=[];" vertex="1" connectable="0" parent="5xRTK5Nr3uc_W30Pz02F-88">
          <mxGeometry x="0.0435" relative="1" as="geometry">
            <mxPoint as="offset" />
          </mxGeometry>
        </mxCell>
        <mxCell id="5xRTK5Nr3uc_W30Pz02F-91" value="" style="endArrow=classic;startArrow=classic;html=1;rounded=0;" edge="1" parent="1" source="5xRTK5Nr3uc_W30Pz02F-6" target="5xRTK5Nr3uc_W30Pz02F-51">
          <mxGeometry width="50" height="50" relative="1" as="geometry">
            <mxPoint x="1500" y="1480" as="sourcePoint" />
            <mxPoint x="1550" y="1430" as="targetPoint" />
          </mxGeometry>
        </mxCell>
        <mxCell id="5xRTK5Nr3uc_W30Pz02F-92" value="32&lt;br&gt;70" style="edgeLabel;html=1;align=center;verticalAlign=middle;resizable=0;points=[];" vertex="1" connectable="0" parent="5xRTK5Nr3uc_W30Pz02F-91">
          <mxGeometry x="-0.1205" relative="1" as="geometry">
            <mxPoint as="offset" />
          </mxGeometry>
        </mxCell>
        <mxCell id="5xRTK5Nr3uc_W30Pz02F-93" value="" style="endArrow=classic;startArrow=classic;html=1;rounded=0;" edge="1" parent="1" source="5xRTK5Nr3uc_W30Pz02F-32" target="5xRTK5Nr3uc_W30Pz02F-5">
          <mxGeometry width="50" height="50" relative="1" as="geometry">
            <mxPoint x="2000" y="1450" as="sourcePoint" />
            <mxPoint x="2050" y="1400" as="targetPoint" />
          </mxGeometry>
        </mxCell>
        <mxCell id="5xRTK5Nr3uc_W30Pz02F-94" value="33&lt;br&gt;85" style="edgeLabel;html=1;align=center;verticalAlign=middle;resizable=0;points=[];" vertex="1" connectable="0" parent="5xRTK5Nr3uc_W30Pz02F-93">
          <mxGeometry x="-0.4725" y="2" relative="1" as="geometry">
            <mxPoint x="-1" as="offset" />
          </mxGeometry>
        </mxCell>
        <mxCell id="5xRTK5Nr3uc_W30Pz02F-95" value="" style="endArrow=classic;startArrow=classic;html=1;rounded=0;" edge="1" parent="1" source="5xRTK5Nr3uc_W30Pz02F-5" target="5xRTK5Nr3uc_W30Pz02F-3">
          <mxGeometry width="50" height="50" relative="1" as="geometry">
            <mxPoint x="1390" y="1480" as="sourcePoint" />
            <mxPoint x="1440" y="1430" as="targetPoint" />
          </mxGeometry>
        </mxCell>
        <mxCell id="5xRTK5Nr3uc_W30Pz02F-96" value="34&lt;br&gt;115" style="edgeLabel;html=1;align=center;verticalAlign=middle;resizable=0;points=[];" vertex="1" connectable="0" parent="5xRTK5Nr3uc_W30Pz02F-95">
          <mxGeometry x="0.5551" relative="1" as="geometry">
            <mxPoint as="offset" />
          </mxGeometry>
        </mxCell>
        <mxCell id="5xRTK5Nr3uc_W30Pz02F-97" value="" style="endArrow=classic;startArrow=classic;html=1;rounded=0;" edge="1" parent="1" source="5xRTK5Nr3uc_W30Pz02F-7" target="5xRTK5Nr3uc_W30Pz02F-5">
          <mxGeometry width="50" height="50" relative="1" as="geometry">
            <mxPoint x="1290" y="1470" as="sourcePoint" />
            <mxPoint x="1340" y="1420" as="targetPoint" />
          </mxGeometry>
        </mxCell>
        <mxCell id="5xRTK5Nr3uc_W30Pz02F-98" value="35&lt;br&gt;90" style="edgeLabel;html=1;align=center;verticalAlign=middle;resizable=0;points=[];" vertex="1" connectable="0" parent="5xRTK5Nr3uc_W30Pz02F-97">
          <mxGeometry x="0.2559" y="1" relative="1" as="geometry">
            <mxPoint as="offset" />
          </mxGeometry>
        </mxCell>
        <mxCell id="5xRTK5Nr3uc_W30Pz02F-99" value="" style="endArrow=classic;startArrow=classic;html=1;rounded=0;" edge="1" parent="1" source="5xRTK5Nr3uc_W30Pz02F-5" target="5xRTK5Nr3uc_W30Pz02F-2">
          <mxGeometry width="50" height="50" relative="1" as="geometry">
            <mxPoint x="1170" y="1080" as="sourcePoint" />
            <mxPoint x="1220" y="1030" as="targetPoint" />
          </mxGeometry>
        </mxCell>
        <mxCell id="5xRTK5Nr3uc_W30Pz02F-100" value="36&lt;br&gt;100" style="edgeLabel;html=1;align=center;verticalAlign=middle;resizable=0;points=[];" vertex="1" connectable="0" parent="5xRTK5Nr3uc_W30Pz02F-99">
          <mxGeometry x="0.3165" relative="1" as="geometry">
            <mxPoint as="offset" />
          </mxGeometry>
        </mxCell>
        <mxCell id="5xRTK5Nr3uc_W30Pz02F-101" value="" style="endArrow=classic;startArrow=classic;html=1;rounded=0;" edge="1" parent="1" source="5xRTK5Nr3uc_W30Pz02F-62" target="5xRTK5Nr3uc_W30Pz02F-32">
          <mxGeometry width="50" height="50" relative="1" as="geometry">
            <mxPoint x="1230" y="1010" as="sourcePoint" />
            <mxPoint x="1280" y="960" as="targetPoint" />
          </mxGeometry>
        </mxCell>
        <mxCell id="5xRTK5Nr3uc_W30Pz02F-102" value="37&lt;br&gt;65" style="edgeLabel;html=1;align=center;verticalAlign=middle;resizable=0;points=[];" vertex="1" connectable="0" parent="5xRTK5Nr3uc_W30Pz02F-101">
          <mxGeometry x="0.0669" y="-3" relative="1" as="geometry">
            <mxPoint as="offset" />
          </mxGeometry>
        </mxCell>
        <mxCell id="5xRTK5Nr3uc_W30Pz02F-103" value="" style="endArrow=classic;startArrow=classic;html=1;rounded=0;" edge="1" parent="1" source="5xRTK5Nr3uc_W30Pz02F-2" target="5xRTK5Nr3uc_W30Pz02F-32">
          <mxGeometry width="50" height="50" relative="1" as="geometry">
            <mxPoint x="1230" y="1040" as="sourcePoint" />
            <mxPoint x="1280" y="990" as="targetPoint" />
          </mxGeometry>
        </mxCell>
        <mxCell id="5xRTK5Nr3uc_W30Pz02F-104" value="38&lt;br&gt;70" style="edgeLabel;html=1;align=center;verticalAlign=middle;resizable=0;points=[];" vertex="1" connectable="0" parent="5xRTK5Nr3uc_W30Pz02F-103">
          <mxGeometry x="-0.0145" y="-3" relative="1" as="geometry">
            <mxPoint as="offset" />
          </mxGeometry>
        </mxCell>
        <mxCell id="5xRTK5Nr3uc_W30Pz02F-105" value="" style="endArrow=classic;startArrow=classic;html=1;rounded=0;" edge="1" parent="1" source="5xRTK5Nr3uc_W30Pz02F-51" target="5xRTK5Nr3uc_W30Pz02F-32">
          <mxGeometry width="50" height="50" relative="1" as="geometry">
            <mxPoint x="1130" y="1130" as="sourcePoint" />
            <mxPoint x="1180" y="1080" as="targetPoint" />
          </mxGeometry>
        </mxCell>
        <mxCell id="5xRTK5Nr3uc_W30Pz02F-106" value="39&lt;br&gt;100" style="edgeLabel;html=1;align=center;verticalAlign=middle;resizable=0;points=[];" vertex="1" connectable="0" parent="5xRTK5Nr3uc_W30Pz02F-105">
          <mxGeometry x="-0.7979" y="2" relative="1" as="geometry">
            <mxPoint as="offset" />
          </mxGeometry>
        </mxCell>
        <mxCell id="5xRTK5Nr3uc_W30Pz02F-107" value="" style="endArrow=classic;startArrow=classic;html=1;rounded=0;" edge="1" parent="1" source="5xRTK5Nr3uc_W30Pz02F-9" target="5xRTK5Nr3uc_W30Pz02F-7">
          <mxGeometry width="50" height="50" relative="1" as="geometry">
            <mxPoint x="1050" y="1130" as="sourcePoint" />
            <mxPoint x="1100" y="1080" as="targetPoint" />
          </mxGeometry>
        </mxCell>
        <mxCell id="5xRTK5Nr3uc_W30Pz02F-108" value="40&lt;br&gt;90" style="edgeLabel;html=1;align=center;verticalAlign=middle;resizable=0;points=[];" vertex="1" connectable="0" parent="5xRTK5Nr3uc_W30Pz02F-107">
          <mxGeometry x="-0.4113" y="2" relative="1" as="geometry">
            <mxPoint as="offset" />
          </mxGeometry>
        </mxCell>
        <mxCell id="5xRTK5Nr3uc_W30Pz02F-109" value="" style="endArrow=classic;startArrow=classic;html=1;rounded=0;" edge="1" parent="1" source="5xRTK5Nr3uc_W30Pz02F-9" target="5xRTK5Nr3uc_W30Pz02F-2">
          <mxGeometry width="50" height="50" relative="1" as="geometry">
            <mxPoint x="1120" y="1080" as="sourcePoint" />
            <mxPoint x="1170" y="1030" as="targetPoint" />
          </mxGeometry>
        </mxCell>
        <mxCell id="5xRTK5Nr3uc_W30Pz02F-110" value="41&lt;br&gt;85" style="edgeLabel;html=1;align=center;verticalAlign=middle;resizable=0;points=[];" vertex="1" connectable="0" parent="5xRTK5Nr3uc_W30Pz02F-109">
          <mxGeometry x="-0.2282" y="1" relative="1" as="geometry">
            <mxPoint as="offset" />
          </mxGeometry>
        </mxCell>
        <mxCell id="5xRTK5Nr3uc_W30Pz02F-111" value="" style="endArrow=classic;startArrow=classic;html=1;rounded=0;" edge="1" parent="1" source="5xRTK5Nr3uc_W30Pz02F-3" target="5xRTK5Nr3uc_W30Pz02F-62">
          <mxGeometry width="50" height="50" relative="1" as="geometry">
            <mxPoint x="1160" y="1060" as="sourcePoint" />
            <mxPoint x="1210" y="1010" as="targetPoint" />
          </mxGeometry>
        </mxCell>
        <mxCell id="5xRTK5Nr3uc_W30Pz02F-112" value="42&lt;br&gt;95" style="edgeLabel;html=1;align=center;verticalAlign=middle;resizable=0;points=[];" vertex="1" connectable="0" parent="5xRTK5Nr3uc_W30Pz02F-111">
          <mxGeometry x="0.7439" y="2" relative="1" as="geometry">
            <mxPoint as="offset" />
          </mxGeometry>
        </mxCell>
        <mxCell id="5xRTK5Nr3uc_W30Pz02F-113" value="" style="endArrow=classic;startArrow=classic;html=1;rounded=0;" edge="1" parent="1" source="5xRTK5Nr3uc_W30Pz02F-3" target="5xRTK5Nr3uc_W30Pz02F-7">
          <mxGeometry width="50" height="50" relative="1" as="geometry">
            <mxPoint x="1190" y="1320" as="sourcePoint" />
            <mxPoint x="1240" y="1270" as="targetPoint" />
          </mxGeometry>
        </mxCell>
        <mxCell id="5xRTK5Nr3uc_W30Pz02F-114" value="43&lt;br&gt;75" style="edgeLabel;html=1;align=center;verticalAlign=middle;resizable=0;points=[];" vertex="1" connectable="0" parent="5xRTK5Nr3uc_W30Pz02F-113">
          <mxGeometry x="-0.0301" y="-2" relative="1" as="geometry">
            <mxPoint as="offset" />
          </mxGeometry>
        </mxCell>
        <mxCell id="5xRTK5Nr3uc_W30Pz02F-115" value="" style="endArrow=classic;startArrow=classic;html=1;rounded=0;" edge="1" parent="1" source="5xRTK5Nr3uc_W30Pz02F-3" target="5xRTK5Nr3uc_W30Pz02F-2">
          <mxGeometry width="50" height="50" relative="1" as="geometry">
            <mxPoint x="1140" y="1090" as="sourcePoint" />
            <mxPoint x="1190" y="1040" as="targetPoint" />
          </mxGeometry>
        </mxCell>
        <mxCell id="5xRTK5Nr3uc_W30Pz02F-116" value="44&lt;br&gt;65" style="edgeLabel;html=1;align=center;verticalAlign=middle;resizable=0;points=[];" vertex="1" connectable="0" parent="5xRTK5Nr3uc_W30Pz02F-115">
          <mxGeometry x="0.3185" y="-1" relative="1" as="geometry">
            <mxPoint as="offset" />
          </mxGeometry>
        </mxCell>
        <mxCell id="5xRTK5Nr3uc_W30Pz02F-117" value="" style="endArrow=classic;startArrow=classic;html=1;rounded=0;" edge="1" parent="1" source="5xRTK5Nr3uc_W30Pz02F-51" target="5xRTK5Nr3uc_W30Pz02F-7">
          <mxGeometry width="50" height="50" relative="1" as="geometry">
            <mxPoint x="1370" y="1510" as="sourcePoint" />
            <mxPoint x="1420" y="1460" as="targetPoint" />
          </mxGeometry>
        </mxCell>
        <mxCell id="5xRTK5Nr3uc_W30Pz02F-118" value="45&lt;br&gt;115" style="edgeLabel;html=1;align=center;verticalAlign=middle;resizable=0;points=[];" vertex="1" connectable="0" parent="5xRTK5Nr3uc_W30Pz02F-117">
          <mxGeometry x="0.2639" y="-2" relative="1" as="geometry">
            <mxPoint as="offset" />
          </mxGeometry>
        </mxCell>
        <mxCell id="5xRTK5Nr3uc_W30Pz02F-119" value="" style="endArrow=classic;startArrow=classic;html=1;rounded=0;" edge="1" parent="1" source="5xRTK5Nr3uc_W30Pz02F-76" target="5xRTK5Nr3uc_W30Pz02F-2">
          <mxGeometry width="50" height="50" relative="1" as="geometry">
            <mxPoint x="1150" y="1150" as="sourcePoint" />
            <mxPoint x="1200" y="1100" as="targetPoint" />
          </mxGeometry>
        </mxCell>
        <mxCell id="5xRTK5Nr3uc_W30Pz02F-120" value="46&lt;br&gt;90" style="edgeLabel;html=1;align=center;verticalAlign=middle;resizable=0;points=[];" vertex="1" connectable="0" parent="5xRTK5Nr3uc_W30Pz02F-119">
          <mxGeometry x="0.356" y="-4" relative="1" as="geometry">
            <mxPoint as="offset" />
          </mxGeometry>
        </mxCell>
        <mxCell id="5xRTK5Nr3uc_W30Pz02F-121" value="" style="endArrow=classic;startArrow=classic;html=1;rounded=0;" edge="1" parent="1" source="5xRTK5Nr3uc_W30Pz02F-51" target="5xRTK5Nr3uc_W30Pz02F-2">
          <mxGeometry width="50" height="50" relative="1" as="geometry">
            <mxPoint x="1150" y="1100" as="sourcePoint" />
            <mxPoint x="1200" y="1050" as="targetPoint" />
          </mxGeometry>
        </mxCell>
        <mxCell id="5xRTK5Nr3uc_W30Pz02F-122" value="47&lt;br&gt;110" style="edgeLabel;html=1;align=center;verticalAlign=middle;resizable=0;points=[];" vertex="1" connectable="0" parent="5xRTK5Nr3uc_W30Pz02F-121">
          <mxGeometry x="0.6894" y="1" relative="1" as="geometry">
            <mxPoint as="offset" />
          </mxGeometry>
        </mxCell>
      </root>
    </mxGraphModel>
  </diagram>
</mxfile>
